<?xml version="1.0" standalone="no"?>
<!DOCTYPE svg PUBLIC "-//W3C//DTD SVG 20010904//EN"
 "http://www.w3.org/TR/2001/REC-SVG-20010904/DTD/svg10.dtd">
<svg version="1.0" xmlns="http://www.w3.org/2000/svg"
 width="700.000000pt" height="700.000000pt" viewBox="0 0 700.000000 700.000000"
 preserveAspectRatio="xMidYMid meet">
<metadata>
Created by potrace 1.14, written by Peter Selinger 2001-2017
</metadata>
<g transform="translate(0.000000,700.000000) scale(0.100000,-0.100000)"
fill="#000000" stroke="none">
<path d="M3278 6995 c-1 -1 -42 -5 -89 -9 -47 -4 -95 -8 -105 -10 -10 -2 -41
-7 -69 -10 -27 -4 -72 -11 -100 -16 -27 -5 -61 -12 -75 -14 -189 -35 -486
-120 -625 -181 -16 -7 -53 -22 -82 -34 -157 -64 -420 -205 -568 -304 -59 -40
-295 -215 -305 -226 -3 -3 -23 -21 -45 -40 -50 -42 -212 -199 -286 -277 -109
-117 -276 -328 -328 -416 -43 -72 -36 -154 20 -221 79 -96 241 -91 317 12 15
20 29 38 32 41 3 3 30 39 60 80 219 300 559 601 913 809 284 166 675 312 977
365 19 3 44 8 55 10 66 12 163 24 265 34 149 13 509 7 640 -12 14 -2 46 -7 70
-10 43 -6 62 -9 120 -21 14 -2 39 -7 57 -10 17 -3 59 -12 92 -21 34 -8 69 -17
78 -19 79 -17 287 -89 418 -145 822 -350 1459 -1048 1734 -1900 30 -92 83
-299 95 -370 3 -19 8 -44 10 -55 44 -228 54 -692 20 -915 -31 -206 -42 -258
-87 -425 -230 -863 -836 -1589 -1657 -1983 -176 -84 -507 -200 -647 -226 -107
-20 -254 -45 -288 -50 -241 -33 -669 -27 -880 14 -27 5 -67 12 -89 16 -57 8
-61 9 -191 43 -518 132 -986 391 -1380 765 -106 100 -141 120 -215 121 -105 0
-188 -72 -198 -173 -7 -73 11 -113 82 -184 277 -276 566 -484 915 -658 88 -44
162 -80 166 -80 3 0 24 -9 48 -19 225 -100 644 -214 869 -237 35 -3 66 -8 69
-9 29 -18 532 -27 709 -12 105 9 111 9 290 38 224 37 581 139 747 215 28 13
54 24 58 24 3 0 65 29 138 65 399 195 754 461 1052 787 96 105 114 127 193
231 332 436 548 917 656 1457 25 130 30 160 51 350 12 109 13 582 2 640 -3 14
-8 52 -11 85 -4 33 -8 71 -11 85 -2 14 -6 41 -9 60 -15 103 -50 261 -82 371
-19 68 -39 138 -44 154 -12 43 -42 125 -90 245 -144 361 -379 736 -646 1029
-84 92 -258 260 -334 322 -36 30 -67 56 -70 60 -7 9 -188 142 -239 175 -380
251 -800 428 -1228 518 -97 21 -133 26 -388 61 -42 6 -551 15 -557 10z"/>
<path d="M2124 6071 c-2 -2 -4 -66 -4 -142 l0 -139 197 -2 198 -3 0 -437 -1
-438 38 -1 c21 0 103 0 183 0 80 0 149 0 153 0 5 1 8 198 8 439 l0 437 192 3
c191 2 192 3 193 25 4 74 -1 250 -6 255 -7 8 -1144 10 -1151 3z"/>
<path d="M3593 6067 c-2 -4 -1 -40 2 -80 12 -121 7 -309 -9 -378 -8 -35 -36
-110 -63 -166 l-48 -102 -58 -3 -59 -3 1 -209 c0 -115 3 -211 5 -214 5 -4 62
-5 252 -3 l51 1 -1 103 -1 104 398 0 397 0 1 -56 c0 -31 0 -77 -1 -103 -1 -44
1 -48 22 -48 46 -1 194 -2 236 -1 l42 1 0 215 0 215 -65 0 -65 0 0 365 c0 201
-3 366 -7 366 -35 6 -1026 2 -1030 -4z"/>
<path d="M3788 4595 c-2 -2 -68 -6 -148 -9 -182 -8 -286 -14 -420 -21 -58 -3
-150 -8 -205 -10 -55 -3 -145 -7 -200 -10 -55 -2 -152 -7 -215 -10 -63 -3
-151 -8 -195 -10 -44 -3 -138 -7 -210 -10 -71 -3 -164 -7 -205 -10 -213 -12
-286 -15 -400 -20 -156 -7 -304 -14 -395 -20 -38 -2 -140 -7 -225 -10 -256 -9
-290 -18 -341 -88 -71 -98 -34 -237 76 -283 39 -16 146 -20 265 -9 25 2 104 7
175 10 72 3 168 8 215 10 47 2 137 7 200 10 90 4 299 15 330 17 19 1 15 -6
-20 -39 -48 -43 -61 -64 -71 -118 -19 -99 40 -199 136 -234 28 -10 61 -17 75
-16 91 8 187 15 265 21 50 4 93 8 98 11 4 2 7 0 7 -5 0 -7 -86 -30 -215 -58
-5 -1 -93 -23 -195 -47 -102 -25 -252 -62 -334 -82 -163 -39 -205 -59 -241
-114 -81 -123 -12 -299 127 -325 13 -3 243 -5 512 -5 445 -1 542 -4 445 -16
-93 -12 -125 -16 -139 -20 -8 -2 -40 -7 -70 -10 -30 -2 -64 -7 -75 -9 -11 -2
-42 -7 -70 -10 -27 -4 -61 -9 -75 -11 -14 -2 -45 -7 -70 -10 -25 -3 -72 -10
-105 -15 -33 -5 -80 -12 -105 -15 -25 -3 -56 -7 -70 -10 -14 -2 -45 -7 -70
-10 -50 -7 -77 -11 -135 -19 -22 -4 -58 -9 -80 -11 -22 -3 -51 -7 -65 -10 -14
-3 -43 -7 -65 -10 -35 -4 -328 -45 -425 -59 -118 -18 -322 -46 -365 -51 -118
-15 -178 -47 -221 -120 -53 -92 -33 -214 47 -285 61 -54 131 -66 261 -45 24 4
54 8 68 10 14 2 54 9 90 14 36 6 90 13 120 16 30 3 62 8 70 10 8 2 39 7 69 10
30 4 63 9 75 11 12 2 46 7 76 10 30 3 57 7 60 9 3 2 35 7 70 10 36 4 67 8 70
10 3 1 32 6 65 9 33 4 71 9 85 11 35 6 77 13 130 20 107 14 236 32 280 40 14
2 48 7 75 10 63 8 105 14 175 25 30 5 78 11 105 15 28 3 61 7 75 10 14 2 43 7
65 10 22 3 83 12 135 20 52 7 120 17 150 21 30 3 64 8 75 9 99 14 122 18 139
21 10 2 44 6 75 10 31 3 65 8 76 10 11 2 40 7 65 10 25 3 52 7 60 9 8 1 40 6
70 10 30 4 62 9 71 10 9 2 40 6 69 10 29 4 60 8 69 10 9 2 44 6 76 10 33 4 69
9 80 11 10 2 35 6 55 8 19 3 85 12 145 21 61 8 124 17 140 19 17 3 82 12 145
21 156 22 159 22 210 30 80 12 94 14 140 20 25 3 56 8 70 10 14 2 45 7 70 10
25 3 72 10 105 15 33 5 80 12 105 15 25 3 56 8 70 10 14 2 45 7 70 10 155 20
190 34 244 96 85 100 65 270 -41 341 -66 45 -68 45 -365 53 -134 4 -295 8
-358 10 -63 2 -227 6 -365 10 -137 4 -299 9 -360 10 -60 2 -146 4 -189 4 -44
1 -77 3 -75 6 4 3 237 58 309 71 14 3 95 21 180 40 85 20 164 37 175 40 16 3
340 75 410 91 11 2 31 6 44 9 12 3 53 12 90 20 70 17 85 20 141 30 99 19 178
82 205 165 20 58 15 194 -9 249 -23 56 -77 101 -138 115 -29 6 -61 11 -71 9
-11 -1 -62 -5 -115 -9 -54 -3 -113 -8 -132 -10 -19 -2 -73 -7 -120 -10 -47 -4
-101 -8 -120 -10 -19 -2 -80 -6 -135 -10 -55 -4 -103 -9 -107 -12 -12 -7 -10
11 6 48 21 52 12 125 -21 173 -38 54 -91 79 -169 81 -35 1 -65 1 -66 0z"/>
<path d="M290 2030 c-9 -6 -11 -678 -1 -684 3 -2 48 5 98 17 l93 20 -1 206 c0
113 0 217 1 232 0 25 1 25 75 24 87 -2 84 -6 83 113 -1 44 -5 72 -12 73 -48 4
-330 3 -336 -1z"/>
<path d="M707 2032 c-15 -3 -17 -31 -16 -295 0 -160 2 -294 5 -298 5 -8 165
21 181 33 6 5 21 28 33 51 47 91 103 192 110 200 4 4 6 -41 5 -100 -1 -59 0
-113 2 -120 4 -10 47 -10 108 2 11 2 32 4 48 4 l27 1 0 263 0 262 -77 -2 c-43
-1 -85 -2 -94 -2 -10 -1 -29 -26 -46 -58 -17 -32 -49 -94 -72 -137 l-41 -80 0
140 0 139 -78 0 c-43 0 -86 -1 -95 -3z"/>
<path d="M1367 1907 c2 -149 -10 -196 -49 -198 -55 -3 -53 2 -53 -97 l0 -94
75 7 c41 4 78 9 82 12 5 2 8 17 8 34 l0 29 140 0 c77 0 139 -3 139 -7 -4 -26
5 -29 74 -25 39 2 75 9 79 15 3 6 6 36 5 66 -2 42 -6 56 -17 57 -8 1 -22 2
-31 3 -13 1 -15 22 -15 161 1 134 -1 161 -14 164 -8 3 -107 5 -220 5 l-205 0
2 -132z"/>
<path d="M1930 2030 c-4 -3 -7 -106 -6 -230 l1 -225 78 0 c43 0 83 3 89 6 5 4
11 33 12 65 2 33 4 61 5 64 0 3 29 5 64 4 92 0 144 26 177 91 25 50 20 116
-15 161 -45 59 -70 66 -243 68 -85 0 -157 -1 -162 -4z"/>
<path d="M2528 2032 c-9 -2 -18 -9 -21 -15 -53 -131 -167 -431 -167 -438 0 -5
44 -9 99 -9 l98 0 13 45 c8 29 18 45 29 46 9 1 38 1 65 1 45 1 50 -2 53 -23 9
-72 4 -69 113 -69 55 0 100 3 100 6 0 12 -163 439 -171 448 -7 8 -176 15 -211
8z"/>
<path d="M2972 2030 c-4 -3 -7 -108 -7 -233 l0 -229 165 4 c160 3 167 4 197
28 38 30 55 86 42 135 -11 39 -60 85 -92 85 -18 1 -17 3 9 14 69 30 87 115 35
167 -16 16 -40 29 -53 30 -86 4 -291 3 -296 -1z"/>
<path d="M3540 2032 c-6 -2 -10 -57 -10 -135 0 -73 -4 -138 -9 -145 -4 -7 -23
-16 -42 -19 -19 -2 -36 -7 -39 -9 -2 -3 -5 -38 -7 -79 l-3 -75 90 0 c89 0 91
0 119 33 55 60 73 110 76 210 2 51 4 95 4 98 1 3 18 5 39 4 l37 -1 0 -166 c0
-91 2 -169 5 -171 3 -3 32 -8 65 -12 33 -3 77 -8 98 -11 l37 -5 -2 242 -3 242
-223 1 c-122 1 -227 0 -232 -2z"/>
<path d="M4056 1801 c1 -130 2 -239 3 -243 0 -5 33 -8 71 -8 l70 0 56 88 c83
129 98 152 104 152 3 0 4 -58 3 -129 l-1 -129 46 -7 c93 -14 120 -15 124 -2 3
7 4 125 3 262 l-1 250 -79 2 c-44 1 -85 -3 -92 -8 -11 -10 -75 -119 -113 -194
-14 -29 -15 -25 -18 86 l-3 116 -87 1 -87 0 1 -237z"/>
<path d="M5324 2022 c-7 -6 -18 -38 -25 -70 -7 -31 -14 -61 -15 -67 -2 -5 -5
-19 -8 -30 -2 -11 -25 -101 -50 -200 -24 -99 -46 -189 -48 -199 -3 -20 11 -26
106 -40 21 -4 42 -9 46 -11 9 -5 14 7 25 63 l7 33 61 -3 62 -3 9 -62 9 -61 91
-14 c50 -8 93 -13 95 -12 2 2 -2 23 -8 46 -6 24 -14 52 -16 63 -2 11 -34 139
-71 285 -37 146 -67 271 -67 278 0 14 4 13 -106 15 -56 1 -89 -2 -97 -11z"/>
<path d="M4588 2018 c-3 -11 -2 -442 1 -499 1 -10 13 -16 39 -17 20 -2 63 -6
95 -11 l57 -8 1 36 c1 20 1 71 1 114 0 43 2 76 4 74 3 -2 26 -58 53 -123 l48
-119 39 -6 c57 -10 164 -17 164 -12 0 5 -27 64 -91 202 -27 57 -49 109 -49
115 0 7 36 67 80 135 44 67 80 124 80 127 0 3 -48 3 -106 2 l-106 -3 -36 -65
c-19 -36 -46 -80 -58 -99 l-23 -34 0 84 c1 46 0 92 0 102 -1 15 -12 17 -95 17
-66 0 -95 -4 -98 -12z"/>
</g>
</svg>
