<svg width="324" height="159" viewBox="0 0 324 159" fill="none" xmlns="http://www.w3.org/2000/svg">
<path d="M51.3581 0C21.91 -3.83854e-05 -4.96075 8.79905 1.15121 10.8621C1.15121 10.8621 58.3582 7 65.5995 7C72.8407 7 96.8695 10.2267 119.91 16.1724C142.95 22.1182 186.862 43.9311 194.103 47.5517C201.345 51.1723 220.324 68.793 225.634 73.3793C230.944 77.9656 260.634 108.379 258.703 110.069C256.772 111.759 234.324 106.207 231.91 106.207C229.496 106.207 225.151 106.69 225.634 112.483C226.117 118.276 228.772 119.241 231.91 121.897C235.048 124.552 317.117 157.621 317.117 157.621L319.621 158.345L321.793 158.828L323 158.586L323.966 157.621V156.414L323.724 155.207L323.241 153.517L304.082 97.2758L290.324 70.9655L281.634 58.1724L274.724 50.931C269.802 43.987 256.772 51.4139 258.703 58.1724C260.634 64.9309 265.22 70.9655 265.22 70.9655C265.22 70.9655 281.634 96.5518 278.737 97.2758C275.841 97.9999 226.841 54.3103 226.841 54.3103C226.841 54.3103 204.392 38.8621 178.082 27.5172C151.772 16.1724 120.875 8.93097 111.462 7C102.048 5.06902 80.8063 3.83856e-05 51.3581 0Z" fill="#E81A1A"/>
</svg>
