<svg width="50" height="50" viewBox="0 0 50 50" fill="none" xmlns="http://www.w3.org/2000/svg">
<g clip-path="url(#clip0_369_112)">
<path d="M8.98614 10.5288H29.3743C30.0709 10.5288 30.6359 11.0938 30.6359 11.7905C30.6359 12.4871 30.0709 13.0521 29.3743 13.0521H8.98614C8.2895 13.0521 7.72449 12.4871 7.72449 11.7905C7.72449 11.0938 8.28929 10.5288 8.98614 10.5288ZM8.98614 15.9821H29.3743C30.0709 15.9821 30.6359 16.5471 30.6359 17.2438C30.6359 17.9404 30.0709 18.5054 29.3743 18.5054H8.98614C8.2895 18.5054 7.72449 17.9404 7.72449 17.2438C7.72449 16.5471 8.28929 15.9821 8.98614 15.9821ZM8.98614 21.4356H29.3743C30.0709 21.4356 30.6359 22.0006 30.6359 22.6973C30.6359 23.3939 30.0709 23.9589 29.3743 23.9589H8.98614C8.2895 23.9589 7.72449 23.3939 7.72449 22.6973C7.72449 22.0006 8.28929 21.4356 8.98614 21.4356ZM8.98614 26.8891H29.3743C30.0709 26.8891 30.6359 27.4541 30.6359 28.1508C30.6359 28.8474 30.0709 29.4124 29.3743 29.4124H8.98614C8.2895 29.4124 7.72449 28.8474 7.72449 28.1508C7.72449 27.4541 8.28929 26.8891 8.98614 26.8891Z" fill="#491D46"/>
<path d="M8.98614 13.0521H29.3743C30.0709 13.0521 30.6359 12.4871 30.6359 11.7905C30.6359 11.0938 30.0709 10.5288 29.3743 10.5288H8.98614C8.2895 10.5288 7.72449 11.0938 7.72449 11.7905C7.72449 12.4871 8.28929 13.0521 8.98614 13.0521Z" fill="#491D46"/>
<path d="M8.98614 18.5055H29.3743C30.0709 18.5055 30.6359 17.9405 30.6359 17.2438C30.6359 16.5472 30.0709 15.9822 29.3743 15.9822H8.98614C8.2895 15.9822 7.72449 16.5472 7.72449 17.2438C7.72449 17.9405 8.28929 18.5055 8.98614 18.5055Z" fill="#491D46"/>
<path d="M8.98614 23.9589H29.3743C30.0709 23.9589 30.6359 23.3938 30.6359 22.6972C30.6359 22.0006 30.0709 21.4355 29.3743 21.4355H8.98614C8.2895 21.4355 7.72449 22.0006 7.72449 22.6972C7.72449 23.3938 8.28929 23.9589 8.98614 23.9589Z" fill="#491D46"/>
<path d="M8.98614 29.4125H29.3743C30.0709 29.4125 30.6359 28.8475 30.6359 28.1508C30.6359 27.4542 30.0709 26.8892 29.3743 26.8892H8.98614C8.2895 26.8892 7.72449 27.4542 7.72449 28.1508C7.72449 28.8475 8.28929 29.4125 8.98614 29.4125Z" fill="#491D46"/>
<path d="M51 20.683C51 20.3485 50.8671 20.0276 50.6305 19.7908L47.1913 16.3517C46.9547 16.1152 46.6338 15.9823 46.2991 15.9823C45.9643 15.9823 45.6436 16.1152 45.4069 16.3517L39.3602 22.3984V3.86956C39.3602 3.17292 38.7954 2.60791 38.0985 2.60791H2.26165C1.5648 2.60791 1 3.17292 1 3.86956V46.1306C1 46.8272 1.5648 47.3922 2.26165 47.3922H38.0987C38.7956 47.3922 39.3604 46.8272 39.3604 46.1306V32.8454L50.6305 21.5752C50.8671 21.3386 51 21.0178 51 20.683ZM3.52331 44.8689V5.13122H36.8371V24.9217L29.4162 32.3426H9.98613C9.28949 32.3426 8.72448 32.9076 8.72448 33.6042C8.72448 34.3009 9.28949 34.8659 9.98613 34.8659H26.8929L26.6757 35.0831C26.5123 35.2465 26.3969 35.4517 26.3422 35.6763L25.4681 39.2615H20.1801C19.4834 39.2615 18.9184 39.8265 18.9184 40.5232C18.9184 41.2198 19.4834 41.7848 20.1801 41.7848C20.1801 41.7848 26.4282 41.7848 26.4589 41.7848C26.5584 41.7848 26.6587 41.773 26.7577 41.7488L31.3058 40.6401C31.5304 40.5854 31.7356 40.47 31.899 40.3066L36.8367 35.3689V44.8693H3.52331V44.8689ZM30.3648 38.2717L28.1762 38.8054L28.7099 36.6169L46.2991 19.0277L47.9542 20.6828L30.3648 38.2717Z" fill="#491D46"/>
</g>
<defs>
<clipPath id="clip0_369_112">
<rect width="50" height="50" fill="white"/>
</clipPath>
</defs>
</svg>
