<svg width="49" height="50" viewBox="0 0 49 50" fill="none" xmlns="http://www.w3.org/2000/svg">
<path d="M19.713 7.45008C20.4497 7.45008 21.1699 7.23161 21.7825 6.8223C22.3951 6.41299 22.8725 5.83122 23.1544 5.15055C23.4364 4.46989 23.5102 3.72091 23.3664 2.99832C23.2227 2.27574 22.8679 1.612 22.347 1.09104C21.826 0.570085 21.1623 0.215309 20.4397 0.0715772C19.7171 -0.0721543 18.9681 0.00161414 18.2874 0.283554C17.6068 0.565493 17.025 1.04294 16.6157 1.65552C16.2064 2.2681 15.9879 2.9883 15.9879 3.72504C15.9889 4.71267 16.3817 5.65955 17.0801 6.35791C17.7784 7.05627 18.7253 7.44906 19.713 7.45008ZM19.713 1.2391C20.2049 1.2391 20.6859 1.38501 21.0949 1.65837C21.504 1.93172 21.8228 2.32025 22.011 2.77481C22.1992 3.22937 22.2484 3.72953 22.1523 4.21204C22.0562 4.69455 21.8192 5.13773 21.4712 5.48552C21.1233 5.83332 20.68 6.0701 20.1974 6.16593C19.7148 6.26175 19.2147 6.21231 18.7602 6.02386C18.3058 5.83541 17.9174 5.51642 17.6443 5.10722C17.3711 4.69803 17.2255 4.21702 17.2257 3.72504C17.2264 3.06572 17.4887 2.43361 17.9551 1.96752C18.4214 1.50142 19.0536 1.23944 19.713 1.2391Z" fill="#491D46"/>
<path d="M10.0554 18.8017C11.3004 18.8017 12.5174 18.4326 13.5526 17.7409C14.5878 17.0492 15.3946 16.0661 15.871 14.9159C16.3475 13.7656 16.4721 12.5 16.2292 11.2789C15.9864 10.0578 15.3868 8.9362 14.5065 8.05586C13.6262 7.17552 12.5045 6.576 11.2835 6.33311C10.0624 6.09023 8.79672 6.21489 7.6465 6.69132C6.49628 7.16776 5.51316 7.97458 4.82148 9.00975C4.1298 10.0449 3.76062 11.262 3.76062 12.507C3.76233 14.1759 4.42607 15.776 5.60621 16.9562C6.78634 18.1363 8.38645 18.8 10.0554 18.8017ZM10.0554 7.45513C11.0557 7.45564 12.0334 7.75279 12.8648 8.309C13.6961 8.8652 14.3439 9.65548 14.7261 10.5799C15.1083 11.5043 15.2078 12.5212 15.0119 13.5022C14.8161 14.4831 14.3338 15.3839 13.6259 16.0907C12.9181 16.7974 12.0165 17.2784 11.0353 17.4727C10.0541 17.6671 9.03724 17.566 8.11344 17.1824C7.18964 16.7988 6.40035 16.1498 5.84542 15.3176C5.29049 14.4854 4.99483 13.5072 4.99585 12.507C4.99722 11.1657 5.5308 9.87987 6.47943 8.93173C7.42806 7.98358 8.71419 7.45066 10.0554 7.44997V7.45513Z" fill="#491D46"/>
<path d="M7.18785 45.0641C7.18785 44.5985 7.04977 44.1433 6.79106 43.7561C6.53235 43.3689 6.16464 43.0671 5.73443 42.8889C5.30421 42.7107 4.83082 42.6641 4.3741 42.755C3.91739 42.8458 3.49787 43.07 3.1686 43.3993C2.83933 43.7286 2.61509 44.1481 2.52424 44.6048C2.4334 45.0615 2.48002 45.5349 2.65822 45.9651C2.83642 46.3954 3.1382 46.7631 3.52538 47.0218C3.91256 47.2805 4.36777 47.4186 4.83343 47.4186C5.45765 47.4179 6.05611 47.1696 6.4975 46.7282C6.93889 46.2868 7.18717 45.6884 7.18785 45.0641ZM3.71811 45.0641C3.71785 44.8432 3.78315 44.6271 3.90575 44.4433C4.02835 44.2595 4.20273 44.1162 4.40681 44.0315C4.6109 43.9468 4.83552 43.9246 5.05224 43.9676C5.26896 44.0107 5.46804 44.1171 5.62428 44.2733C5.78052 44.4295 5.88689 44.6286 5.92993 44.8453C5.97298 45.062 5.95076 45.2867 5.86608 45.4908C5.78141 45.6948 5.63809 45.8692 5.45427 45.9918C5.27044 46.1144 5.05438 46.1797 4.83343 46.1795C4.53806 46.1784 4.2551 46.0606 4.04636 45.8516C3.83762 45.6426 3.72008 45.3595 3.7194 45.0641H3.71811Z" fill="#491D46"/>
<path d="M47.9596 25.2759C47.2704 24.6395 46.4171 24.2086 45.4958 24.0318C44.5746 23.8549 43.6223 23.9393 42.7466 24.2753L36.6865 26.6285C35.4744 26.3229 33.8588 26.0599 32.0189 25.8239C33.9183 25.0373 35.4868 23.6172 36.4575 21.805C37.4283 19.9928 37.7415 17.9003 37.3438 15.8832C36.9462 13.8662 35.8623 12.0491 34.2764 10.7409C32.6904 9.43268 30.7004 8.71409 28.6445 8.70728H28.611C26.6994 8.71033 24.8396 9.32902 23.3071 10.4717C21.7746 11.6144 20.6509 13.2203 20.1025 15.0515C19.554 16.8828 19.61 18.842 20.2621 20.6389C20.9142 22.4359 22.1277 23.975 23.7229 25.0283C17.276 24.862 10.597 27.268 8.36376 28.1564L7.91506 25.5286C7.89045 25.3846 7.81577 25.2539 7.70419 25.1595C7.59262 25.0651 7.4513 25.0132 7.30518 25.0129H1.10709C0.942946 25.0129 0.785525 25.0781 0.669457 25.1941C0.55339 25.3102 0.488184 25.4676 0.488184 25.6318C0.488184 25.7959 0.55339 25.9533 0.669457 26.0694C0.785525 26.1855 0.942946 26.2507 1.10709 26.2507H6.7804L7.23813 28.921C7.21348 29.0443 7.22743 29.1721 7.2781 29.2872C7.28772 29.3095 7.29892 29.331 7.31162 29.3517L10.419 47.532L0.550074 48.7647C0.392368 48.7823 0.247466 48.8599 0.145306 48.9813C0.0431462 49.1028 -0.00846564 49.2588 0.0011344 49.4172C0.0107344 49.5756 0.0808131 49.7243 0.196891 49.8325C0.312968 49.9407 0.466175 50.0001 0.624859 49.9986C0.651043 50.0005 0.677328 50.0005 0.703512 49.9986L11.2159 48.6847C11.2989 48.6744 11.3789 48.6474 11.4512 48.6053C11.5234 48.5632 11.5864 48.5069 11.6363 48.4398C11.6862 48.3726 11.722 48.2961 11.7415 48.2148C11.7609 48.1334 11.7638 48.049 11.7497 47.9665L10.8394 42.644H25.7885C27.8742 42.6398 29.9037 41.9674 31.5792 40.7253L47.7739 28.6644C48.0333 28.4713 48.2471 28.2235 48.4002 27.9386C48.5532 27.6536 48.6417 27.3385 48.6594 27.0156C48.6771 26.6926 48.6236 26.3698 48.5027 26.0698C48.3817 25.7698 48.1963 25.5001 47.9596 25.2798V25.2759ZM20.9572 17.5731C20.9674 15.5484 21.7783 13.6099 23.2128 12.181C24.6473 10.7521 26.5889 9.94874 28.6136 9.94638H28.6433C30.6566 9.97597 32.5773 10.7975 33.9892 12.233C35.4012 13.6686 36.1908 15.6026 36.1871 17.6161C36.1834 19.6297 35.3866 21.5607 33.9693 22.991C32.552 24.4213 30.6283 25.2357 28.6149 25.2579H28.5917C26.5607 25.2497 24.616 24.4358 23.1846 22.995C21.7532 21.5541 20.9521 19.6041 20.9572 17.5731ZM47.4232 26.9444C47.4157 27.0858 47.3772 27.2238 47.3104 27.3486C47.2435 27.4734 47.15 27.5819 47.0364 27.6664L30.8417 39.7274C29.3806 40.8116 27.6105 41.3991 25.7911 41.4036H10.6318L8.58038 29.4123C10.566 28.6141 18.3114 25.7311 25.0845 26.35L25.5216 26.3899C27.2133 26.5434 30.0461 26.8013 32.6468 27.1636C33.9585 27.3281 35.2601 27.5644 36.5459 27.8714L36.6104 27.8882C37.513 28.1255 37.8301 28.3073 37.9397 28.404C38.1448 28.5819 38.1203 28.9468 37.8662 29.4858C37.5755 30.0881 37.1449 30.6122 36.6104 31.0144C36.0759 31.4166 35.453 31.6851 34.7936 31.7976C32.3898 32.2182 29.966 32.5152 27.5318 32.6873C24.9444 32.8838 22.4316 33.6457 20.1707 34.9192L20.0766 34.9734C20.0058 35.0134 19.9436 35.0669 19.8935 35.1309C19.8434 35.1949 19.8064 35.2681 19.7846 35.3464C19.7628 35.4247 19.7566 35.5066 19.7665 35.5872C19.7763 35.6679 19.8019 35.7459 19.8419 35.8167C19.8819 35.8874 19.9354 35.9496 19.9994 35.9997C20.0634 36.0498 20.1366 36.0868 20.2149 36.1086C20.2932 36.1304 20.3751 36.1366 20.4557 36.1267C20.5364 36.1169 20.6144 36.0913 20.6852 36.0513L20.7793 35.9985C22.8809 34.8142 25.2167 34.1056 27.6221 33.9225C30.0991 33.7489 32.5655 33.4477 35.0115 33.02C35.8656 32.8727 36.6721 32.5233 37.3636 32.0009C38.0551 31.4785 38.6116 30.7983 38.9867 30.017C39.6662 28.5729 39.1324 27.8044 38.7546 27.4743C38.6665 27.3988 38.571 27.3323 38.4697 27.2757L43.1953 25.441C43.8538 25.1874 44.5702 25.1235 45.2633 25.2563C45.9563 25.3892 46.5982 25.7136 47.1163 26.1927C47.2188 26.2883 47.2992 26.4051 47.3522 26.5349C47.4052 26.6646 47.4294 26.8043 47.4232 26.9444Z" fill="#491D46"/>
<g clip-path="url(#clip0_369_134)">
<path d="M28.094 22.978H26.8388C26.677 22.978 26.5458 22.8469 26.5458 22.6851V21.7228H25.8974C25.7356 21.7228 25.6044 21.5916 25.6044 21.4298V20.1746C25.6044 20.0128 25.7356 19.8817 25.8974 19.8817H26.5458V19.2124H25.8974C25.7356 19.2124 25.6044 19.0812 25.6044 18.9194V17.6642C25.6044 17.5024 25.7356 17.3713 25.8974 17.3713H26.5458V13.271C26.5458 13.1092 26.677 12.978 26.8388 12.978H29.9768C31.6957 12.978 33.094 14.3764 33.094 16.0952C33.094 17.8168 31.7013 19.2124 29.9768 19.2124H28.387V19.8817H30.2906C30.4524 19.8817 30.5836 20.0129 30.5836 20.1746V21.4299C30.5836 21.5917 30.4524 21.7228 30.2906 21.7228H28.387V22.6851C28.387 22.8469 28.2558 22.978 28.094 22.978ZM27.1318 22.3921H27.8011V21.4298C27.8011 21.268 27.9322 21.1369 28.094 21.1369H29.9977V20.4676H28.094C27.9322 20.4676 27.8011 20.3364 27.8011 20.1746V18.9194C27.8011 18.7576 27.9322 18.6265 28.094 18.6265H29.9768C31.3748 18.6265 32.5081 17.4955 32.5081 16.0952C32.5081 14.6995 31.3726 13.564 29.9768 13.564H27.1318V17.6642C27.1318 17.826 27.0006 17.9572 26.8388 17.9572H26.1904V18.6265H26.8388C27.0006 18.6265 27.1318 18.7576 27.1318 18.9194V20.1746C27.1318 20.3364 27.0006 20.4676 26.8388 20.4676H26.1904V21.1369H26.8388C27.0006 21.1369 27.1318 21.2681 27.1318 21.4299V22.3921Z" fill="#491D46"/>
<path d="M29.9769 17.9571H28.0941C27.9323 17.9571 27.8011 17.8259 27.8011 17.6641V14.5261C27.8011 14.3643 27.9323 14.2332 28.0941 14.2332H29.9769C31.0035 14.2332 31.8388 15.0684 31.8388 16.0951C31.8388 17.1218 31.0035 17.9571 29.9769 17.9571ZM28.387 17.3712H29.9768C30.6804 17.3712 31.2529 16.7987 31.2529 16.0951C31.2529 15.3915 30.6804 14.8191 29.9768 14.8191H28.387V17.3712Z" fill="#491D46"/>
</g>
<defs>
<clipPath id="clip0_369_134">
<rect width="10" height="10" fill="white" transform="translate(24.3492 12.978)"/>
</clipPath>
</defs>
</svg>
