<svg width="500" height="500" viewBox="0 0 500 500" fill="none" xmlns="http://www.w3.org/2000/svg">
<path d="M202.292 235.208C198.369 231.285 193.048 229.081 187.5 229.081C181.952 229.081 176.631 231.285 172.708 235.208C168.785 239.131 166.582 244.452 166.582 250C166.582 255.548 168.785 260.869 172.708 264.792L235.208 327.292C237.155 329.222 239.464 330.75 242.002 331.787C244.54 332.824 247.258 333.349 250 333.333C252.852 333.243 255.655 332.567 258.236 331.349C260.816 330.13 263.118 328.395 265 326.25L410.833 159.583C414.201 155.403 415.824 150.083 415.366 144.735C414.907 139.386 412.402 134.421 408.372 130.875C404.342 127.329 399.098 125.475 393.735 125.7C388.372 125.925 383.302 128.212 379.583 132.083L250 282.083L202.292 235.208Z" fill="#360430"/>
<path d="M437.5 229.166C431.975 229.166 426.676 231.361 422.769 235.268C418.861 239.175 416.667 244.474 416.667 249.999C416.667 294.202 399.107 336.594 367.851 367.85C336.595 399.107 294.203 416.666 250 416.666C217.085 416.651 184.912 406.89 157.537 388.615C130.162 370.339 108.811 344.367 96.1766 313.974C83.5424 283.58 80.1904 250.126 86.5434 217.83C92.8965 185.535 108.67 155.843 131.875 132.499C147.306 116.862 165.702 104.459 185.984 96.0163C206.267 87.574 228.03 83.2621 250 83.3327C263.322 83.4161 276.595 84.953 289.583 87.916C292.301 88.7567 295.163 89.0318 297.991 88.7243C300.82 88.4168 303.555 87.5332 306.029 86.1281C308.503 84.7229 310.663 82.8259 312.375 80.554C314.088 78.2821 315.317 75.6835 315.987 72.9184C316.657 70.1533 316.753 67.2802 316.27 64.4764C315.787 61.6726 314.735 58.9974 313.179 56.6158C311.622 54.2342 309.595 52.1967 307.221 50.6288C304.846 49.0608 302.176 47.9958 299.375 47.4993C283.19 43.6919 266.626 41.7349 250 41.666C208.84 41.8798 168.666 54.281 134.548 77.3046C100.429 100.328 73.8952 132.942 58.2941 171.031C42.693 209.12 38.7241 250.977 46.8882 291.319C55.0522 331.662 74.9835 368.682 104.167 397.708C142.848 436.406 195.284 458.205 250 458.333C305.253 458.333 358.244 436.383 397.314 397.313C436.384 358.243 458.333 305.253 458.333 249.999C458.333 244.474 456.138 239.175 452.231 235.268C448.324 231.361 443.025 229.166 437.5 229.166Z" fill="#360430"/>
</svg>
