<svg width="50" height="50" viewBox="0 0 50 50" fill="none" xmlns="http://www.w3.org/2000/svg">
<circle cx="25" cy="25" r="25" fill="#C1C7FC"/>
<path d="M18.2591 20.6003L24.2591 24.3607C24.4607 24.4867 24.7215 24.5464 24.9839 24.5464C25.2463 24.5464 25.5071 24.4867 25.7087 24.3607L31.7087 20.6003C32.0999 20.3548 32.4695 19.4 31.7519 19.4H18.2167C17.4991 19.4 17.8687 20.3548 18.2591 20.6003ZM31.8903 22.6564L25.7087 26.415C25.4367 26.5811 25.2463 26.6007 24.9839 26.6007C24.7215 26.6007 24.5311 26.5811 24.2591 26.415C23.9871 26.2488 18.5527 22.9252 18.1087 22.6555C17.7967 22.4651 17.7999 22.6882 17.7999 22.8599V29.6667C17.7999 30.0587 18.2527 30.6 18.5999 30.6H31.3999C31.7471 30.6 32.1999 30.0587 32.1999 29.6667V22.8608C32.1999 22.6891 32.2031 22.466 31.8903 22.6564Z" fill="#002C85"/>
</svg>
