<svg width="50" height="50" viewBox="0 0 50 50" fill="none" xmlns="http://www.w3.org/2000/svg">
<circle cx="25" cy="25" r="25" fill="#3033FF"/>
<path d="M24.9741 23.4239C24.9741 23.6129 25.1277 23.7614 25.3155 23.7614C25.7047 23.7614 26.0187 24.0753 26.0187 24.4566C26.0187 24.6423 26.1724 24.7941 26.3601 24.7941C26.5479 24.7941 26.7015 24.6423 26.7015 24.4566C26.7015 23.7006 26.0802 23.0864 25.3155 23.0864C25.1277 23.0864 24.9741 23.2383 24.9741 23.4239ZM30.5318 24.7941C30.723 24.7941 30.8732 24.6423 30.8732 24.4566C30.8732 21.4259 28.3811 18.9621 25.3155 18.9621C25.1277 18.9621 24.9741 19.114 24.9741 19.2996C24.9741 19.4853 25.1277 19.6371 25.3155 19.6371C28.0056 19.6371 30.1904 21.8005 30.1904 24.4566C30.1904 24.6423 30.344 24.7941 30.5318 24.7941Z" fill="#C1C7FC"/>
<path d="M28.1045 24.4566C28.1045 24.6423 28.2582 24.7941 28.4459 24.7941C28.6337 24.7941 28.7873 24.6423 28.7873 24.4566C28.7873 22.5633 27.2306 21.0243 25.3155 21.0243C25.1277 21.0243 24.9741 21.1761 24.9741 21.3618C24.9741 21.5508 25.1277 21.6993 25.3155 21.6993C26.8551 21.6993 28.1045 22.9379 28.1045 24.4566ZM25.3155 16.9C25.1277 16.9 24.9741 17.0519 24.9741 17.2375C24.9741 17.4231 25.1277 17.575 25.3155 17.575C29.156 17.575 32.2796 20.6631 32.2796 24.4566C32.2796 24.6423 32.4298 24.7941 32.621 24.7941C32.8088 24.7941 32.9624 24.6423 32.9624 24.4566C32.9624 20.2885 29.5315 16.9 25.3155 16.9ZM28.6508 28.0139L28.2036 28.2535C27.4491 28.6619 26.862 29.7812 25.931 28.9375L23.4999 26.5L21.3999 24.4566C20.3448 23.1235 21.5262 22.8062 21.9392 22.057L22.1816 21.6183C22.4547 21.1187 22.5537 20.5585 22.4718 19.9982C22.3933 19.438 22.1372 18.9284 21.7276 18.5234C21.2292 18.0306 20.5669 17.7606 19.8602 17.7606C19.1536 17.7606 18.4879 18.0306 17.9895 18.5234L17.8154 18.6989C16.8937 19.6101 16.7878 21.1795 17.515 23.1235C18.2011 24.9798 19.5837 26.9913 21.3999 28.7868C24.1685 31.5239 27.2511 33.1 29.4632 33.1C30.3372 33.1 31.078 32.8536 31.6037 32.3339L31.7812 32.1584C32.2762 31.669 32.5527 31.0143 32.5561 30.3089C32.5527 29.6204 32.2694 28.9454 31.7812 28.4628C30.9585 27.6494 29.6715 27.4671 28.6508 28.0139Z" fill="#C1C7FC"/>
</svg>
