<svg width="50" height="50" viewBox="0 0 50 50" fill="none" xmlns="http://www.w3.org/2000/svg">
<circle cx="25" cy="25" r="25" fill="#C1C7FC"/>
<path d="M24.9742 23.4239C24.9742 23.6129 25.1278 23.7614 25.3156 23.7614C25.7047 23.7614 26.0188 24.0753 26.0188 24.4566C26.0188 24.6423 26.1724 24.7941 26.3602 24.7941C26.5479 24.7941 26.7016 24.6423 26.7016 24.4566C26.7016 23.7007 26.0802 23.0864 25.3156 23.0864C25.1278 23.0864 24.9742 23.2383 24.9742 23.4239ZM30.5318 24.7941C30.723 24.7941 30.8732 24.6423 30.8732 24.4566C30.8732 21.4259 28.3811 18.9622 25.3156 18.9622C25.1278 18.9622 24.9742 19.114 24.9742 19.2997C24.9742 19.4853 25.1278 19.6372 25.3156 19.6372C28.0056 19.6372 30.1905 21.8005 30.1905 24.4566C30.1905 24.6423 30.3441 24.7941 30.5318 24.7941Z" fill="#002C85"/>
<path d="M28.1046 24.4567C28.1046 24.6423 28.2582 24.7942 28.446 24.7942C28.6338 24.7942 28.7874 24.6423 28.7874 24.4567C28.7874 22.5633 27.2307 21.0243 25.3155 21.0243C25.1278 21.0243 24.9742 21.1762 24.9742 21.3618C24.9742 21.5508 25.1278 21.6993 25.3155 21.6993C26.8552 21.6993 28.1046 22.9379 28.1046 24.4567ZM25.3155 16.9C25.1278 16.9 24.9742 17.0519 24.9742 17.2375C24.9742 17.4232 25.1278 17.575 25.3155 17.575C29.1561 17.575 32.2797 20.6632 32.2797 24.4567C32.2797 24.6423 32.4299 24.7942 32.6211 24.7942C32.8088 24.7942 32.9624 24.6423 32.9624 24.4567C32.9624 20.2885 29.5316 16.9 25.3155 16.9ZM28.6508 28.0139L28.2036 28.2535C27.4492 28.6619 26.8621 29.7813 25.931 28.9375L23.5 26.5L21.3999 24.4567C20.3448 23.1235 21.5262 22.8063 21.9393 22.057L22.1817 21.6183C22.4548 21.1188 22.5538 20.5585 22.4718 19.9983C22.3933 19.438 22.1373 18.9284 21.7276 18.5234C21.2292 18.0307 20.567 17.7607 19.8603 17.7607C19.1536 17.7607 18.488 18.0307 17.9895 18.5234L17.8154 18.6989C16.8937 19.6102 16.7879 21.1795 17.515 23.1235C18.2012 24.9798 19.5838 26.9913 21.3999 28.7868C24.1685 31.5239 27.2512 33.1 29.4633 33.1C30.3372 33.1 31.078 32.8537 31.6037 32.3339L31.7813 32.1584C32.2763 31.669 32.5528 31.0143 32.5562 30.3089C32.5528 29.6204 32.2694 28.9454 31.7813 28.4628C30.9585 27.6494 29.6715 27.4672 28.6508 28.0139Z" fill="#002C85"/>
</svg>
