<svg width="63" height="16" viewBox="0 0 63 16" fill="none" xmlns="http://www.w3.org/2000/svg">
<path d="M56.6719 0.6875H55.9688L54.75 3.0625H55.4062L50.3438 12.8125H49.6406L48.0938 15.8125H52.5938L56.9062 7.125L56.6719 0.6875Z" fill="#491D46"/>
<path d="M61.1719 0H57.3281L57.7969 11H55.6406L54.0938 14.125H57.9844V15.8125H62.0156L61.1719 0Z" fill="#491D46"/>
<path d="M45.0938 0.125H40.6406L39.8906 3.25H40.4531L38.1094 12.9375H37.4531L36.75 16H41.8594L42.5625 12.9375H42L45.0938 0.125Z" fill="#491D46"/>
<path d="M50.2031 0.125H45.7031L45 3.3125H47.8125L46.5938 8.8125H43.6406L42.9375 11.875H47.3906L50.5312 8.625L51.75 3.5V3.125L50.2031 0.125Z" fill="#491D46"/>
<path d="M39.7031 0H27.75L26.625 4.5625H29.0625L29.3438 3.4375H36.4219L36.1875 4.5625H38.625L39.7031 0Z" fill="#491D46"/>
<path d="M34.7344 4.3125H30.5625L27.8438 15.875H31.9219L34.7344 4.3125Z" fill="#491D46"/>
<path d="M26.8438 0H20.75L20 3.02372H22.3438V3.27569L22.0625 4.53557H25.7188L26.8438 0Z" fill="#491D46"/>
<path d="M19.6406 0.0625H15.6562L11.8125 15.937H15.7969L17.3438 9.38562H21.1875L21.8906 6.36191H18.1875V6.10993L19.6406 0.0625Z" fill="#491D46"/>
<path d="M23.6719 11.125H19.7344L19.3594 12.645H17.1094L16.3594 15.875H22.5469L23.6719 11.125Z" fill="#491D46"/>
<path d="M13.5938 0.0625H9L8.25 3.1875H8.8125V3.4375L5.71875 15.9375H9.75L13.5938 0.0625Z" fill="#491D46"/>
<path d="M6.04688 0H1.5H1.35938L0.65625 3.0625H1.21875V3.3125L0 8.3125V8.8125L1.59375 11.8125H6.09375L6.84375 8.625H3.9375L6.04688 0Z" fill="#491D46"/>
</svg>
