<svg width="311" height="81" viewBox="0 0 311 81" fill="none" xmlns="http://www.w3.org/2000/svg">
<path d="M59.8204 66.0503C54.7339 84.8919 26.4356 86.1098 20.6327 66.0503L0 2.2179V1H18.2685L38.9012 62.2533H41.7669L59.8204 66.0503Z" fill="#C1C7FC"/>
<path d="M68.704 39.4713L59.6772 66.2651L41.2654 62.898L62.3279 0.999939H207.043L189.634 17.3341H156.321V79.5904H138.912V17.3341C138.912 17.3341 95.5695 17.1909 88.1188 17.3341C80.6681 17.4774 80.3099 31.2326 88.1188 31.2326C95.9277 31.2326 89.1591 31.2255 115.271 31.2326C141.383 31.2396 141.714 79.5655 115.271 79.5904C88.8278 79.6154 68.704 79.5904 68.704 79.5904V62.898C68.704 62.898 104.525 63.2562 111.617 62.898C118.71 62.5398 118.423 48.2115 111.617 48.2115H83.2472C76.7278 47.2086 72.9308 44.7728 68.704 39.4713Z" fill="#C1C7FC"/>
<path d="M179 54.2324V79.2352H206.08L232.015 53.3011V79.2352H258.092L310.892 26.364V0H286.032L283.095 1.14626L258.307 25.9341V0H233.089L230.653 1.14626L179.716 52.0832L179 54.2324Z" fill="#002C85"/>
<path d="M284.026 78.9487H310.892V52.0832L284.026 78.9487Z" fill="#002C85"/>
<path d="M207.013 61.8981C207.013 67.5569 202.426 72.1443 196.767 72.1443C191.108 72.1443 186.521 67.5569 186.521 61.8981C186.521 56.2393 191.108 51.6519 196.767 51.6519C202.426 51.6519 207.013 56.2393 207.013 61.8981Z" stroke="#FEFFFF"/>
<path d="M251.288 17.4806C251.288 23.1394 246.7 27.7268 241.041 27.7268C235.383 27.7268 230.795 23.1394 230.795 17.4806C230.795 11.8218 235.383 7.23438 241.041 7.23438C246.7 7.23438 251.288 11.8218 251.288 17.4806Z" stroke="#FEFFFF"/>
<path d="M204.504 54.0892L241.041 17.5522V65.9101L297.423 9.52838V40.6923" stroke="#FEFFFF"/>
<line x1="297.995" y1="65.4802" x2="297.995" y2="78.9487" stroke="#FEFFFF"/>
</svg>
