<svg width="239" height="75" viewBox="0 0 239 75" fill="none" xmlns="http://www.w3.org/2000/svg">
<path d="M17.5598 1.27273L35.138 56.5284H35.8127L53.4263 1.27273H70.4718L45.4007 74H25.5854L0.478871 1.27273H17.5598ZM94.6017 1.27273V74H79.2253V1.27273H94.6017ZM107.253 74V1.27273H135.946C141.462 1.27273 146.161 2.32623 150.044 4.43324C153.926 6.51657 156.886 9.41666 158.922 13.1335C160.981 16.8267 162.011 21.0881 162.011 25.9176C162.011 30.7472 160.97 35.0085 158.886 38.7017C156.803 42.3949 153.784 45.2713 149.831 47.331C145.901 49.3906 141.142 50.4205 135.555 50.4205H117.267V38.098H133.069C136.029 38.098 138.467 37.589 140.385 36.571C142.326 35.5294 143.77 34.0971 144.717 32.2741C145.688 30.4276 146.173 28.3087 146.173 25.9176C146.173 23.5028 145.688 21.3958 144.717 19.5966C143.77 17.7737 142.326 16.3651 140.385 15.3707C138.443 14.3527 135.981 13.8438 132.998 13.8438H122.629V74H107.253ZM238.831 37.6364C238.831 45.5672 237.328 52.3144 234.321 57.8778C231.338 63.4413 227.266 67.6908 222.105 70.6264C216.968 73.5384 211.191 74.9943 204.776 74.9943C198.313 74.9943 192.512 73.5265 187.375 70.5909C182.238 67.6553 178.178 63.4058 175.195 57.8423C172.212 52.2789 170.72 45.5436 170.72 37.6364C170.72 29.7055 172.212 22.9583 175.195 17.3949C178.178 11.8314 182.238 7.59375 187.375 4.68182C192.512 1.74621 198.313 0.278406 204.776 0.278406C211.191 0.278406 216.968 1.74621 222.105 4.68182C227.266 7.59375 231.338 11.8314 234.321 17.3949C237.328 22.9583 238.831 29.7055 238.831 37.6364ZM223.242 37.6364C223.242 32.4991 222.472 28.1667 220.933 24.6392C219.418 21.1117 217.276 18.4366 214.506 16.6136C211.736 14.7907 208.493 13.8793 204.776 13.8793C201.059 13.8793 197.816 14.7907 195.046 16.6136C192.276 18.4366 190.121 21.1117 188.583 24.6392C187.067 28.1667 186.31 32.4991 186.31 37.6364C186.31 42.7737 187.067 47.1061 188.583 50.6335C190.121 54.161 192.276 56.8362 195.046 58.6591C197.816 60.482 201.059 61.3935 204.776 61.3935C208.493 61.3935 211.736 60.482 214.506 58.6591C217.276 56.8362 219.418 54.161 220.933 50.6335C222.472 47.1061 223.242 42.7737 223.242 37.6364Z" fill="#C1C7FC"/>
</svg>
