<svg width="362" height="70" viewBox="0 0 362 70" fill="none" xmlns="http://www.w3.org/2000/svg">
<path d="M330.586 3.00781H326.484L319.375 13.3984H323.203L293.672 56.0547H289.57L280.547 69.1797H306.797L331.953 31.1719L330.586 3.00781Z" fill="#F3B411"/>
<path d="M356.836 0H334.414L337.148 48.125H324.57L315.547 61.7969H338.242V69.1797H361.758L356.836 0Z" fill="#F3B411"/>
<path d="M263.047 0.546875H237.07L232.695 14.2188H235.977L222.305 56.6016H218.477L214.375 70H244.18L248.281 56.6016H245L263.047 0.546875Z" fill="#F3B411"/>
<path d="M292.852 0.546875H266.602L262.5 14.4922H278.906L271.797 38.5547H254.57L250.469 51.9531H276.445L294.766 37.7344L301.875 15.3125V13.6719L292.852 0.546875Z" fill="#F3B411"/>
<path d="M231.602 0H161.875L155.312 19.9609H169.531L171.172 15.0391H212.461L211.094 19.9609H225.312L231.602 0Z" fill="#F3B411"/>
<path d="M202.617 18.8672H178.281L162.422 69.4531H186.211L202.617 18.8672Z" fill="#F3B411"/>
<path d="M154.219 0.273438H118.672L114.297 13.5022H127.969V14.6046L126.328 20.1166H147.656L154.219 0.273438Z" fill="#F3B411"/>
<path d="M114.57 0.273438H91.3281L68.9062 69.7244H92.1484L101.172 41.0621H123.594L127.695 27.8333H106.094V26.7309L114.57 0.273438Z" fill="#F3B411"/>
<path d="M138.086 48.6719H115.117L112.93 55.3219H99.8047L95.4297 69.4531H131.523L138.086 48.6719Z" fill="#F3B411"/>
<path d="M79.2969 0.273438H52.5L48.125 13.9453H51.4062V15.0391L33.3594 69.7266H56.875L79.2969 0.273438Z" fill="#F3B411"/>
<path d="M35.2734 0H8.75H7.92969L3.82812 13.3984H7.10938V14.4922L0 36.3672V38.5547L9.29688 51.6797H35.5469L39.9219 37.7344H22.9688L35.2734 0Z" fill="#F3B411"/>
</svg>
