<svg width="512" height="512" viewBox="0 0 512 512" fill="none" xmlns="http://www.w3.org/2000/svg">
<g clip-path="url(#clip0_133_2)">
<path d="M255.999 0C152.786 0 68.817 85.478 68.817 190.545C68.817 249.315 98.541 320.648 157.166 402.562C200.068 462.51 242.344 505.264 244.123 507.056C247.393 510.348 251.695 511.999 256.002 511.999C260.184 511.999 264.369 510.441 267.613 507.316C269.396 505.599 311.779 464.576 354.762 405.456C413.434 324.755 443.183 252.449 443.183 190.544C443.181 85.478 359.21 0 255.999 0ZM255.999 272.806C205.539 272.806 164.488 231.754 164.488 181.295C164.488 130.836 205.54 89.784 255.999 89.784C306.458 89.784 347.51 130.836 347.51 181.295C347.51 231.754 306.457 272.806 255.999 272.806Z" fill="#002C85"/>
</g>
<defs>
<clipPath id="clip0_133_2">
<rect width="511.999" height="511.999" fill="white"/>
</clipPath>
</defs>
</svg>
