<svg width="350" height="260" viewBox="0 0 350 260" fill="none" xmlns="http://www.w3.org/2000/svg">
<g id="price-down">
<path id="Vector 7" d="M71.3581 0C41.91 -3.83854e-05 15.0393 8.79905 21.1512 10.8621C21.1512 10.8621 78.3582 7 85.5995 7C92.8407 7 116.87 10.2267 139.91 16.1724C162.95 22.1182 206.862 43.9311 214.103 47.5517C221.345 51.1723 240.324 68.793 245.634 73.3793C250.944 77.9656 280.634 108.379 278.703 110.069C276.772 111.759 254.324 106.207 251.91 106.207C249.496 106.207 245.151 106.69 245.634 112.483C246.117 118.276 248.772 119.241 251.91 121.897C255.048 124.552 337.117 157.621 337.117 157.621L339.621 158.345L341.793 158.828L343 158.586L343.966 157.621V156.414L343.724 155.207L343.241 153.517L324.082 97.2758L310.324 70.9655L301.634 58.1724L294.724 50.931C289.802 43.987 276.772 51.4139 278.703 58.1724C280.634 64.9309 285.22 70.9655 285.22 70.9655C285.22 70.9655 301.634 96.5518 298.737 97.2758C295.841 97.9999 246.841 54.3103 246.841 54.3103C246.841 54.3103 224.392 38.8621 198.082 27.5172C171.772 16.1724 140.875 8.93097 131.462 7C122.048 5.06902 100.806 3.83856e-05 71.3581 0Z" fill="#E81A1A"/>
<rect id="Rectangle 13" y="42.4828" width="48.2759" height="217.241" fill="#5D365A"/>
<rect id="Rectangle 14" x="60.3448" y="78.6897" width="48.2759" height="181.034" fill="#5D365A"/>
<rect id="Rectangle 15" x="120.69" y="114.897" width="48.2759" height="144.828" fill="#5D365A"/>
<rect id="Rectangle 16" x="181.034" y="151.103" width="48.2759" height="108.621" fill="#5D365A"/>
<rect id="Rectangle 17" x="241.379" y="187.31" width="48.2759" height="72.4138" fill="#5D365A"/>
<rect id="Rectangle 18" x="301.724" y="223.517" width="48.2759" height="36.2069" fill="#5D365A"/>
</g>
</svg>
