<svg width="944" height="700" viewBox="0 0 944 700" fill="none" xmlns="http://www.w3.org/2000/svg">
<g id="price-down">
<path id="Vector 7" d="M192.322 0C112.954 -0.000103455 40.5333 23.7149 57.006 29.2751C57.006 29.2751 211.189 18.8662 230.705 18.8662C250.221 18.8662 314.983 27.5625 377.08 43.5874C439.178 59.6122 557.527 118.402 577.045 128.16C596.562 137.918 647.713 185.409 662.025 197.77C676.337 210.13 756.356 292.101 751.151 296.654C745.947 301.208 685.445 286.245 678.939 286.245C672.433 286.245 660.724 287.546 662.025 303.16C663.326 318.773 670.482 321.375 678.939 328.532C687.396 335.688 908.586 424.814 908.586 424.814L915.335 426.766L921.19 428.067L924.442 427.416L927.045 424.814V421.561L926.394 418.309L925.093 413.755L873.456 262.175L836.374 191.264L812.954 156.784L794.331 137.268C781.064 118.552 745.947 138.569 751.151 156.784C756.356 175 768.716 191.264 768.716 191.264C768.716 191.264 812.954 260.223 805.148 262.175C797.341 264.126 665.277 146.375 665.277 146.375C665.277 146.375 604.775 104.74 533.865 74.1636C462.954 43.5874 379.683 24.0705 354.311 18.8662C328.939 13.6619 271.69 0.000103456 192.322 0Z" fill="#E81A1A"/>
<rect id="Rectangle 13" y="114.498" width="130.112" height="585.502" fill="#5D365A"/>
<rect id="Rectangle 14" x="162.639" y="212.082" width="130.112" height="487.918" fill="#5D365A"/>
<rect id="Rectangle 15" x="325.279" y="309.665" width="130.112" height="390.335" fill="#5D365A"/>
<rect id="Rectangle 16" x="487.918" y="407.249" width="130.112" height="292.751" fill="#5D365A"/>
<rect id="Rectangle 17" x="650.558" y="504.833" width="130.112" height="195.167" fill="#5D365A"/>
<rect id="Rectangle 18" x="813.197" y="602.416" width="130.112" height="97.5836" fill="#5D365A"/>
</g>
</svg>
