<svg width="50" height="50" viewBox="0 0 50 50" fill="none" xmlns="http://www.w3.org/2000/svg">
<path d="M45.5308 24.1267V13.4198C45.5298 12.7208 45.2517 12.0507 44.7574 11.5564C44.2631 11.0621 43.593 10.784 42.894 10.7831H41.1611L42.8627 0.797284C42.8792 0.699273 42.8741 0.598853 42.8478 0.503012C42.8215 0.40717 42.7746 0.318211 42.7105 0.242325C42.6463 0.166438 42.5663 0.105448 42.4762 0.0635989C42.3861 0.0217496 42.2879 4.64361e-05 42.1885 0L26.6827 0C26.5833 4.64361e-05 26.4851 0.0217496 26.395 0.0635989C26.3048 0.105448 26.2249 0.166438 26.1607 0.242325C26.0965 0.318211 26.0497 0.40717 26.0234 0.503012C25.9971 0.598853 25.992 0.699273 26.0084 0.797284L27.0874 7.12907H25.333C25.2342 7.12909 25.1366 7.15046 25.0469 7.19173C24.9572 7.23299 24.8774 7.29317 24.8131 7.36814L21.8931 10.7815H17.4156V7.09079C17.4157 7.001 17.398 6.91209 17.3637 6.82912C17.3294 6.74616 17.279 6.67078 17.2155 6.60729C17.152 6.5438 17.0767 6.49345 16.9937 6.45911C16.9107 6.42478 16.8218 6.40713 16.732 6.40718H7.81268C7.7229 6.40713 7.63398 6.42478 7.55102 6.45911C7.46806 6.49345 7.39267 6.5438 7.32918 6.60729C7.2657 6.67078 7.21534 6.74616 7.18101 6.82912C7.14667 6.91209 7.12902 7.001 7.12907 7.09079V10.7815H0.683612C0.593707 10.7815 0.504685 10.7992 0.421644 10.8337C0.338603 10.8681 0.263173 10.9186 0.199673 10.9823C0.136174 11.0459 0.0858519 11.1215 0.0515893 11.2046C0.0173267 11.2877 -0.00020371 11.3768 1.78592e-06 11.4667V23.6955C-4.95652e-05 23.7853 0.0175975 23.8742 0.0519339 23.9571C0.0862703 24.0401 0.136623 24.1155 0.200112 24.179C0.263601 24.2425 0.338982 24.2928 0.421945 24.3272C0.504907 24.3615 0.593824 24.3791 0.683612 24.3791H7.12907V28.071C7.12902 28.1608 7.14667 28.2497 7.18101 28.3326C7.21534 28.4156 7.2657 28.491 7.32918 28.5545C7.39267 28.618 7.46806 28.6683 7.55102 28.7026C7.63398 28.737 7.7229 28.7546 7.81268 28.7546H16.7309C16.8207 28.7546 16.9096 28.737 16.9925 28.7026C17.0755 28.6683 17.1509 28.618 17.2144 28.5545C17.2779 28.491 17.3282 28.4156 17.3625 28.3326C17.3969 28.2497 17.4145 28.1608 17.4145 28.071V24.3791H23.1763C20.6122 28.4143 18.8688 34.1559 18.8688 38.745C18.8688 46.003 24.3967 50 34.4344 50C44.4721 50 50.0012 46.003 50.0012 38.745C50.0012 34.0422 48.2089 28.2007 45.5308 24.1267ZM41.3787 1.36722L39.774 10.7815H38.0521L38.645 5.63255C38.6646 5.45304 38.6123 5.2731 38.4996 5.13201C38.3869 4.99092 38.223 4.90014 38.0436 4.87951C37.8642 4.85887 37.6839 4.91005 37.5421 5.02186C37.4004 5.13367 37.3086 5.29704 37.2868 5.4763L36.6759 10.7815H35.118V5.55599C35.118 5.37468 35.046 5.20081 34.9178 5.0726C34.7896 4.9444 34.6157 4.87238 34.4344 4.87238C34.2531 4.87238 34.0792 4.9444 33.951 5.0726C33.8228 5.20081 33.7508 5.37468 33.7508 5.55599V10.7815H32.1953L31.5839 5.47747C31.5758 5.38665 31.5495 5.29839 31.5067 5.21788C31.4638 5.13737 31.4053 5.06624 31.3346 5.00868C31.2639 4.95111 31.1824 4.90828 31.0948 4.88271C31.0073 4.85713 30.9155 4.84933 30.8249 4.85975C30.7344 4.87018 30.6468 4.89862 30.5673 4.94341C30.4879 4.9882 30.4182 5.04843 30.3624 5.12055C30.3066 5.19267 30.2658 5.27523 30.2424 5.36336C30.219 5.45149 30.2134 5.54342 30.2261 5.63373L30.821 10.7815H29.0972L28.5706 7.69549L27.4924 1.36722H41.3787ZM1.36722 23.0119V12.1487H7.13025V23.0119H1.36722ZM16.0484 27.387H8.49747V7.77362H16.0484V27.387ZM17.4156 12.1499H22.2079C22.3067 12.1499 22.4042 12.1286 22.4939 12.0873C22.5836 12.046 22.6633 11.9858 22.7275 11.9108L25.6475 8.4959H27.3202L27.846 11.5819C27.8736 11.7407 27.9564 11.8846 28.0797 11.9883C28.2031 12.092 28.3591 12.1488 28.5202 12.1487H42.8955C43.2321 12.1491 43.5548 12.283 43.7928 12.521C44.0308 12.759 44.1647 13.0817 44.1651 13.4183V14.8441H40.9666C40.7853 14.8441 40.6114 14.9161 40.4832 15.0443C40.355 15.1725 40.283 15.3464 40.283 15.5277C40.283 15.709 40.355 15.8829 40.4832 16.0111C40.6114 16.1393 40.7853 16.2113 40.9666 16.2113H44.1651V18.7262H40.9666C40.7853 18.7262 40.6114 18.7982 40.4832 18.9264C40.355 19.0546 40.283 19.2285 40.283 19.4098C40.283 19.5911 40.355 19.765 40.4832 19.8932C40.6114 20.0214 40.7853 20.0934 40.9666 20.0934H44.1651V22.608H40.9666C40.7853 22.608 40.6114 22.68 40.4832 22.8082C40.355 22.9364 40.283 23.1103 40.283 23.2916C40.283 23.4729 40.355 23.6467 40.4832 23.7749C40.6114 23.9031 40.7853 23.9752 40.9666 23.9752H44.1651V25.8502C44.1647 26.1868 44.0308 26.5095 43.7928 26.7475C43.5548 26.9855 43.2321 27.1194 42.8955 27.1198H29.4671L24.7564 23.3529C24.5839 23.1623 24.3478 23.0411 24.0924 23.0119H17.4156V12.1499ZM34.4356 48.634C27.9581 48.634 20.2372 46.9183 20.2372 38.7462C20.2372 34.3031 21.9607 28.7179 24.4775 24.8818L28.8003 28.3397C28.9212 28.4369 29.0717 28.4898 29.2269 28.4897H42.894C43.4584 28.4854 44.0068 28.302 44.4603 27.9659C44.9137 27.6298 45.2487 27.1585 45.4171 26.6198C47.3574 30.287 48.634 34.9875 48.634 38.7462C48.634 46.9171 40.9127 48.634 34.4356 48.634Z" fill="#5D365A"/>
</svg>
