<svg width="175" height="45" viewBox="0 0 175 45" fill="none" xmlns="http://www.w3.org/2000/svg">
<path d="M2.58623 37.0051V6.07614H0V0H8.96702V6.07614H6.40199V37.0051H2.58623ZM9.58843 45V31.1574H10.076C10.401 30.9442 10.6978 30.5787 10.9663 30.0609C11.249 29.5127 11.5034 28.7817 11.7295 27.868C11.9556 26.9543 12.1605 25.8122 12.3443 24.4416C12.528 23.0711 12.6834 21.4416 12.8106 19.5533C12.9378 17.6345 13.0438 15.4264 13.1286 12.9289L13.595 0H21.5869V31.1574H23.5159V45H21.0145L20.8237 37.0051H12.4078L12.1959 45H9.58843ZM13.6586 31.1574H18.0467V5.80203H16.4568L16.266 13.7513C16.1953 16.3706 16.0893 18.5939 15.948 20.4213C15.8208 22.2487 15.6654 23.7716 15.4816 24.9898C15.3121 26.1777 15.1283 27.1523 14.9305 27.9137C14.7326 28.6751 14.5206 29.2995 14.2945 29.7868C14.0825 30.2741 13.8706 30.731 13.6586 31.1574ZM30.6645 37.0051V0H38.614V6.07614H34.4591V37.0051H30.6645ZM40.477 37.0051V0H43.466V21.198L47.8542 0H50.3132V37.0051H47.2606V15.4416L42.7877 37.0051H40.477ZM52.0271 45V31.1574H52.5147C52.8397 30.9442 53.1365 30.5787 53.405 30.0609C53.6877 29.5127 53.9421 28.7817 54.1682 27.868C54.3943 26.9543 54.5992 25.8122 54.7829 24.4416C54.9667 23.0711 55.1221 21.4416 55.2493 19.5533C55.3765 17.6345 55.4825 15.4264 55.5673 12.9289L56.0337 0H64.0255V31.1574H65.9546V45H63.4532L63.2624 37.0051H54.8465L54.6345 45H52.0271ZM56.0973 31.1574H60.4854V5.80203H58.8955L58.7047 13.7513C58.634 16.3706 58.528 18.5939 58.3867 20.4213C58.2595 22.2487 58.1041 23.7716 57.9203 24.9898C57.7507 26.1777 57.567 27.1523 57.3692 27.9137C57.1713 28.6751 56.9593 29.2995 56.7332 29.7868C56.5212 30.2741 56.3092 30.731 56.0973 31.1574ZM67.6159 37.0051V0H73.3819C74.4136 0 75.2615 0.426396 75.9257 1.27919C76.59 2.10153 77.0846 3.3198 77.4097 4.93401C77.7347 6.51777 77.8972 8.45178 77.8972 10.736C77.8972 13.599 77.6782 15.7919 77.2397 17.3147C76.802 18.8071 76.2084 19.8426 75.4594 20.4213C74.7104 21 73.8695 21.2893 72.9367 21.2893H71.4104V37.0051H67.6159ZM71.4104 15.5787H72.6824C73.1487 15.5787 73.502 15.3959 73.7423 15.0305C73.9825 14.665 74.138 14.1168 74.2087 13.3858C74.2935 12.6548 74.3359 11.7259 74.3359 10.599C74.3359 9.65482 74.3005 8.83249 74.2299 8.13198C74.1733 7.40102 74.0249 6.82234 73.7847 6.39594C73.5444 5.96955 73.1699 5.75635 72.6612 5.75635H71.4104V15.5787ZM78.5477 37.0051L81.7911 0H86.1156L89.3166 37.0051H85.8188L85.2464 29.1929H82.7238L82.1302 37.0051H78.5477ZM83.063 24.3046H84.8861L83.9745 9.86802L83.063 24.3046ZM91.0503 37.0051V0H95.5232C96.2581 0 96.9506 0.121828 97.6007 0.365483C98.2649 0.60914 98.8514 1.08122 99.3601 1.78173C99.8689 2.45178 100.265 3.4264 100.547 4.70559C100.844 5.95432 100.992 7.61422 100.992 9.68528C100.992 11.1777 100.886 12.4416 100.674 13.4772C100.477 14.4822 100.187 15.2893 99.8053 15.8985C99.4379 16.5076 98.9927 16.9188 98.4698 17.132C99.134 17.3147 99.6922 17.7868 100.144 18.5482C100.597 19.2792 100.936 20.269 101.162 21.5178C101.402 22.7665 101.522 24.2741 101.522 26.0406C101.522 27.9594 101.402 29.6193 101.162 31.0203C100.936 32.3909 100.604 33.5178 100.166 34.401C99.7276 35.2843 99.1835 35.9391 98.5334 36.3655C97.8974 36.7919 97.1625 37.0051 96.3287 37.0051H91.0503ZM94.8448 31.2944H95.6504C96.4842 31.2944 97.0566 30.8376 97.3675 29.9239C97.6925 29.0102 97.855 27.67 97.855 25.9036C97.855 24.5025 97.7844 23.3909 97.643 22.5685C97.5017 21.7462 97.2685 21.1523 96.9435 20.7868C96.6184 20.3909 96.1803 20.1929 95.6292 20.1929H94.8448V31.2944ZM94.8448 14.802H95.5868C96.1662 14.802 96.6043 14.6193 96.9011 14.2538C97.1979 13.8579 97.3957 13.2944 97.4947 12.5635C97.6077 11.8325 97.6642 10.9492 97.6642 9.91371C97.6642 8.93909 97.5795 8.13198 97.4099 7.49239C97.2544 6.82234 97.0142 6.3198 96.6891 5.98477C96.3782 5.64975 95.9825 5.48224 95.502 5.48224H94.8448V14.802ZM102.389 37.0051V31.2487C102.87 31.2487 103.258 31.1878 103.555 31.066C103.852 30.9137 104.085 30.5787 104.255 30.0609C104.424 29.5431 104.558 28.7513 104.657 27.6853C104.756 26.6193 104.834 25.1878 104.891 23.3909C104.961 21.5939 105.046 19.3096 105.145 16.5381L105.696 0H114.79V37.0051H111.017V6.25889H109.13L108.791 18.0914C108.692 21.1371 108.593 23.7716 108.494 25.9949C108.395 28.1878 108.233 30.0305 108.007 31.5228C107.795 33.0152 107.47 34.1878 107.032 35.0406C106.608 35.8629 106.021 36.4264 105.272 36.731C104.523 37.0355 103.562 37.1269 102.389 37.0051ZM117.488 37.0051V0H120.477V21.198L124.865 0H127.324V37.0051H124.271V15.4416L119.798 37.0051H117.488ZM129.992 37.0051V0H133.786V14.665H134.168L136.691 0H140.464L137.327 17.3604L140.57 37.0051H136.669L134.168 20.8782H133.786V37.0051H129.992ZM141.233 37.0051L144.476 0H148.801L152.002 37.0051H148.504L147.932 29.1929H145.409L144.815 37.0051H141.233ZM145.748 24.3046H147.571L146.66 9.86802L145.748 24.3046ZM153.82 23.3452V18.5939H159.311V23.3452H153.82ZM161.849 37.0051L162.146 0H166.216L168.102 21.5178L170.137 0H174.059L174.356 37.0051H171.664L171.346 12.3807L169.353 37.0051H166.958L164.838 12.198L164.583 37.0051H161.849Z" fill="url(#paint0_linear_52_12)"/>
<defs>
<linearGradient id="paint0_linear_52_12" x1="4.5" y1="22.5" x2="180.9" y2="22.5" gradientUnits="userSpaceOnUse">
<stop stop-color="#3437FF"/>
<stop offset="1" stop-color="#7578FE"/>
</linearGradient>
</defs>
</svg>
